HIERARCHY
ROOT Hips
{
  OFFSET 13.6774 106.653 -34.4427
  CHANNELS 6 Xposition Yposition Zposition Zrotation Xrotation Yrotation
  JOINT ToSpine
  {
    OFFSET -2.69724 7.43032 -0.144315
    CHANNELS 3 Zrotation Xrotation Yrotation
    JOINT Spine
    {
      OFFSET -0.0310711 10.7595 1.96963
      CHANNELS 3 Zrotation Xrotation Yrotation
      JOINT Spine1
      {
        OFFSET 19.9056 3.91189 0.764692
        CHANNELS 3 Zrotation Xrotation Yrotation
        JOINT Neck
        {
          OFFSET 25.9749 7.03908 -0.130764
          CHANNELS 3 Zrotation Xrotation Yrotation
          JOINT Head
          {
            OFFSET 9.52751 0.295786 -0.907742
            CHANNELS 3 Zrotation Xrotation Yrotation
            End Site
            {
              OFFSET 16.4037 0.713936 2.7358
            }
          }
        }
        JOINT LeftShoulder
        {
          OFFSET 17.7449 4.33886 11.7777
          CHANNELS 3 Zrotation Xrotation Yrotation
          JOINT LeftArm
          {
            OFFSET 0.911315 1.27913 9.80584
            CHANNELS 3 Zrotation Xrotation Yrotation
            JOINT LeftForeArm
            {
              OFFSET 28.6126 1.18197 -3.53199
              CHANNELS 3 Zrotation Xrotation Yrotation
              JOINT LeftHand
              {
                OFFSET 27.5088 0.0218783 0.327423
                CHANNELS 3 Zrotation Xrotation Yrotation
                End Site
                {
                  OFFSET 18.6038 -0.000155887 0.382096
                }
              }
            }
          }
        }
        JOINT RightShoulder
        {
          OFFSET 17.1009 2.89543 -12.2328
          CHANNELS 3 Zrotation Xrotation Yrotation
          JOINT RightArm
          {
            OFFSET 1.4228 0.178766 -10.211
            CHANNELS 3 Zrotation Xrotation Yrotation
            JOINT RightForeArm
            {
              OFFSET 28.733 1.87905 2.64907
              CHANNELS 3 Zrotation Xrotation Yrotation
              JOINT RightHand
              {
                OFFSET 27.4588 0.290562 -0.101845
                CHANNELS 3 Zrotation Xrotation Yrotation
                End Site
                {
                  OFFSET 17.8396 -0.255518 -0.000602873
                }
              }
            }
          }
        }
      }
    }
  }
  JOINT LeftUpLeg
  {
    OFFSET -5.61296 -2.22332 -10.2353
    CHANNELS 3 Zrotation Xrotation Yrotation
    JOINT LeftLeg
    {
      OFFSET 2.56703 -44.7417 -7.93097
      CHANNELS 3 Zrotation Xrotation Yrotation
      JOINT LeftFoot
      {
        OFFSET 3.16933 -46.5642 -3.96578
        CHANNELS 3 Zrotation Xrotation Yrotation
        JOINT LeftToeBase
        {
          OFFSET 0.346054 -6.02161 12.8035
          CHANNELS 3 Zrotation Xrotation Yrotation
          End Site
          {
            OFFSET 0.134235 -1.35082 5.13018
          }
        }
      }
    }
  }
  JOINT RightUpLeg
  {
    OFFSET -5.7928 -1.72406 10.6446
    CHANNELS 3 Zrotation Xrotation Yrotation
    JOINT RightLeg
    {
      OFFSET -2.57161 -44.7178 -7.85259
      CHANNELS 3 Zrotation Xrotation Yrotation
      JOINT RightFoot
      {
        OFFSET -3.10148 -46.5936 -4.03391
        CHANNELS 3 Zrotation Xrotation Yrotation
        JOINT RightToeBase
        {
          OFFSET -0.0828122 -6.13587 12.8035
          CHANNELS 3 Zrotation Xrotation Yrotation
          End Site
          {
            OFFSET -0.131328 -1.35082 5.13018
          }
        }
      }
    }
  }
}
MOTION
Frames: 19
Frame Time: 0.03333333333333333
0.0000 93.1000 0.0000 -66.1974 -18.4160 -169.8880 -70.9914 0.2099 87.9975 119.2803 75.0502 -29.2186 -7.4752 29.3701 1.2147 -149.2898 8.9609 -168.4855 -155.9575 46.2693 -174.0208 0.9130 -9.4131 -23.6604 -141.2788 27.7064 -68.5295 5.3776 -4.6728 -118.9142 -0.7644 -0.0126 -0.2161 -1.0445 7.9551 23.9338 -43.4056 -26.4507 156.8018 -6.5157 -2.1817 107.6339 -0.1686 -0.2398 -0.1838 -35.5772 16.9479 99.2878 -4.0333 46.0823 -11.1037 -4.0523 -14.0900 -1.7573 1.3037 -6.1900 8.8371 -51.5372 -20.2906 76.1070 0.8616 22.2348 8.7687 1.3155 3.6574 -0.5251 1.9240 -18.0777 -10.3046 
0.0000 93.1000 0.0000 -65.9039 -20.9143 -169.1265 -70.9949 0.1686 88.0004 117.3047 75.2689 -27.2886 -6.9170 29.3653 1.2455 -147.9702 10.4879 -167.3433 -156.0853 47.6705 -175.0417 0.5159 -10.2567 -25.2723 -138.3557 32.2454 -69.6970 8.1130 -5.8401 -119.7314 -0.4880 -0.0679 -0.4814 -1.2887 8.1783 24.4427 -45.3141 -26.6510 156.8555 -3.8448 -1.7282 107.4613 -0.1523 -0.2078 -0.2405 -34.9916 15.2350 98.4855 -4.1725 46.6572 -12.3033 -3.5547 -15.0854 -1.7287 0.3074 -5.3483 10.3701 -52.3169 -21.0918 75.5381 0.8847 24.6873 11.0333 0.8309 2.3219 -0.4184 2.6024 -19.7185 -13.9603 
0.0000 93.1000 0.0000 -65.9878 -22.6362 -168.8366 -70.9965 0.3686 88.0003 114.1986 75.2719 -25.4234 -6.0064 29.3554 1.1278 -147.7744 11.2103 -166.2135 -156.2702 48.7283 -174.3441 0.0929 -10.8373 -25.4421 -138.9044 34.2504 -69.4868 8.4870 -5.6087 -118.0833 -0.5009 0.1372 -0.6873 -1.5511 8.2549 25.5638 -47.0377 -27.1804 156.7412 -1.8776 -1.5377 107.9321 -0.3266 -0.5025 -0.5279 -34.2165 14.8370 98.1457 -4.5281 47.9222 -13.7916 -3.0278 -15.9527 -1.7568 -1.0674 -3.2593 11.5110 -52.8438 -21.1652 74.9769 0.1483 26.2032 11.6499 -0.2657 0.8417 -0.1177 2.8428 -20.7375 -16.4017 
0.0000 93.1000 0.0000 -66.0257 -23.9196 -169.0257 -70.9982 -0.0855 88.0012 112.5887 75.9314 -23.1352 -5.8204 29.4235 1.1215 -146.6449 11.8302 -166.8698 -155.2054 49.0648 -175.2827 0.2565 -11.2411 -25.2483 -138.8709 35.0053 -69.7067 8.8623 -5.8183 -117.7077 -0.4964 -0.3499 -0.6963 -1.5545 7.8785 25.8672 -47.9291 -27.5461 156.1232 -1.5550 -1.3682 108.0257 -0.0510 -0.0773 -0.0391 -34.5801 13.9706 97.8708 -4.5494 49.1760 -14.3616 -3.0336 -17.0119 -1.7366 -2.0864 -1.9343 12.1827 -53.6112 -21.0561 75.1032 -0.3817 26.2469 10.6427 -0.6372 -1.8583 -0.0600 2.2831 -19.4339 -16.4341 
0.0000 93.1000 0.0000 -65.9443 -25.6169 -168.9371 -71.0010 -0.3741 88.0009 110.7637 75.7025 -20.3787 -4.9922 28.9976 1.5680 -146.6676 12.2802 -165.9901 -155.1878 49.1275 -175.2015 0.2665 -11.3635 -25.0824 -139.1633 34.9704 -70.5371 8.6145 -6.1669 -117.9052 -0.2998 -0.6674 -0.7227 -1.6997 7.9293 25.6026 -48.0271 -29.1228 156.0767 -1.1123 -0.7076 107.5397 -0.0015 0.1133 0.1879 -35.0799 14.0995 97.8938 -5.0738 49.6898 -15.0106 -3.2694 -17.1091 -1.5505 -1.8277 -1.9875 12.2032 -53.9922 -20.9331 75.8115 -0.7155 27.0987 10.4181 -2.1661 -2.8926 0.2138 1.9702 -18.9431 -14.4441 
0.0000 93.1000 0.0000 -67.0475 -26.4230 -168.7999 -71.0020 -0.4747 88.0026 107.5098 75.8611 -17.7340 -4.4777 28.8862 2.0321 -145.1626 12.6189 -165.0619 -155.6051 49.2786 -174.4236 0.7094 -11.2482 -24.7813 -139.1838 34.2518 -70.7671 9.0058 -5.9755 -117.9336 -0.1747 -0.8972 -0.7130 -1.4726 7.8992 25.6768 -48.7505 -29.3979 155.8143 -1.0558 -0.7764 107.8740 0.1749 0.2361 0.4921 -34.9763 13.4518 96.9570 -5.5299 50.4263 -14.5494 -2.9937 -17.6329 -1.7621 -1.6065 -1.8288 10.5624 -54.1035 -20.8289 75.8043 -1.0301 27.8425 9.7869 -1.9561 -3.5699 0.2549 2.2193 -17.9875 -11.7665 
0.0000 93.1000 0.0000 -67.7580 -26.4691 -168.6826 -71.0064 -0.5511 88.0021 107.7795 75.8715 -16.2668 -4.2274 28.9657 1.4327 -144.2043 12.7653 -164.1354 -155.4273 49.4353 -174.2405 0.1992 -11.2533 -24.8933 -139.0997 33.1149 -70.7226 9.1385 -5.8098 -117.8645 -0.4149 -0.9670 -0.6713 -1.6929 7.9211 25.0343 -49.1176 -30.0941 155.8938 -0.0302 -0.2577 108.0394 0.3659 0.2605 0.3404 -35.0886 13.6034 96.2601 -5.0555 50.3954 -14.4214 -2.7372 -16.3586 -1.3779 -0.8710 -3.9477 10.1785 -54.4934 -21.0090 76.4837 -1.0713 29.6911 9.4405 -2.8329 -4.7640 0.0685 2.2098 -17.5400 -11.2675 
0.0000 93.1000 0.0000 -68.0671 -26.0609 -169.6978 -71.0078 -0.3996 88.0027 104.8165 75.8507 -12.4649 -3.4603 28.7814 1.0359 -143.3773 12.6849 -163.7584 -155.5238 49.4289 -175.3870 0.0724 -11.0726 -24.2465 -139.1077 32.3436 -70.7962 9.8429 -6.1049 -118.4626 -0.3499 -0.9089 -0.8833 -1.7654 8.0295 24.9629 -48.9884 -30.2270 156.1555 0.3243 0.1037 107.7697 0.3266 0.1392 0.2263 -35.9384 13.7139 95.8213 -5.1399 49.3849 -13.0714 -2.6369 -14.7793 -1.1719 -0.3592 -4.2826 8.9750 -53.9550 -20.4067 77.3379 -1.8645 30.9505 9.0386 -2.8965 -5.9322 -0.0700 1.6882 -16.4763 -9.3645 
0.0000 93.1000 0.0000 -68.1802 -25.8136 -170.3189 -71.0086 -0.3856 88.0012 100.2433 75.8698 -9.1661 -2.6927 28.8243 0.5821 -143.1261 12.3592 -163.8248 -155.4691 48.7029 -174.2813 0.0510 -11.0981 -23.7808 -140.1666 31.9481 -71.4769 10.7741 -6.9091 -117.9726 -0.1263 -0.9949 -1.0359 -1.7151 8.2303 25.0766 -49.8061 -30.1116 155.8403 0.7906 -0.0514 107.8375 0.2880 0.1374 0.2355 -36.2169 14.3024 95.9357 -4.5405 49.0412 -12.8101 -3.2561 -13.4310 -0.9999 0.5451 -5.4711 7.9757 -53.0545 -20.2601 78.6540 -1.9241 32.6375 6.9822 -2.4165 -7.3339 0.0281 1.5949 -16.5795 -7.6208 
0.0000 93.1000 0.0000 -68.8928 -25.8884 -169.9158 -71.0062 -0.2882 88.0033 98.6394 75.9423 -7.5139 -2.4600 28.7816 0.8133 -143.3957 12.0784 -163.9281 -155.6247 48.0840 -175.4330 0.3753 -11.1037 -23.6878 -140.9160 30.8104 -71.7449 11.7347 -7.3388 -117.1765 0.0435 -0.9615 -1.0619 -1.4410 8.1649 24.9669 -49.9116 -30.4599 156.5759 1.6191 -0.1042 107.2058 0.2190 0.0836 0.1664 -37.1950 14.7761 94.8613 -5.0263 47.1652 -13.0244 -4.5392 -11.6300 -0.8358 2.0960 -9.0637 5.9392 -52.6451 -19.2607 78.9761 -1.3806 33.3680 6.9488 -3.5636 -8.5168 0.4448 2.4171 -18.4661 -10.3008 
0.0000 93.1000 0.0000 -68.9407 -25.9803 -170.7033 -71.0047 -0.3432 88.0047 98.2074 75.3328 -7.3345 -2.2260 28.2416 0.6327 -143.3754 12.1179 -163.9906 -155.5801 48.1001 -174.9477 0.6915 -11.0132 -23.2912 -142.2758 29.9072 -72.5933 12.8268 -7.4109 -115.2624 0.0704 -1.1481 -0.8055 -1.2678 8.1343 24.8787 -50.0159 -30.1949 157.3388 1.7417 0.1352 106.8471 0.3294 0.2570 0.2799 -38.3020 15.2000 94.4801 -4.2159 45.2953 -13.5056 -4.3841 -9.4611 -0.8577 2.7671 -10.5987 6.1090 -52.6464 -18.0399 80.0215 -0.9967 34.1876 5.1135 -3.7269 -9.8798 0.6515 1.9101 -17.5428 -9.7843 
0.0000 93.1000 0.0000 -68.9288 -26.4249 -170.7827 -71.0029 -0.2628 88.0043 98.2747 75.2643 -7.2441 -2.2185 28.0385 1.0064 -143.2146 11.9109 -163.7568 -155.2878 47.9075 -174.2751 0.7071 -11.0799 -23.0831 -142.8081 29.3984 -73.5029 13.0710 -7.2935 -113.9448 0.0859 -1.1344 -0.7520 -1.1520 7.9014 24.2685 -50.1104 -30.5823 158.0269 2.0103 0.2914 106.8654 0.2657 0.2366 0.2562 -39.2318 16.1995 94.1941 -4.1887 43.2832 -12.1601 -4.7928 -7.0122 -0.7482 3.4329 -11.5539 5.2369 -52.9662 -16.4537 80.9556 -1.0059 35.0499 1.7111 -3.6401 -10.9938 0.8081 1.6779 -17.4548 -6.8332 
0.0000 93.1000 0.0000 -69.6586 -27.1340 -170.1786 -71.0035 -0.3544 88.0065 97.7174 75.0194 -6.2908 -2.1504 27.9982 0.8789 -143.3475 12.0543 -163.9555 -155.2610 47.8417 -173.9458 0.5102 -11.0706 -23.1987 -142.2853 29.5990 -74.5695 12.9757 -6.7447 -113.0306 0.0003 -1.2239 -0.6981 -1.2249 7.8990 23.8647 -49.6142 -31.2004 158.7377 2.7917 0.4693 106.5908 0.3386 0.2575 0.2783 -40.1693 16.7941 93.8862 -2.9152 40.4901 -10.8441 -4.5823 -3.8470 -0.4486 3.0074 -10.7573 5.2467 -53.9384 -15.2647 79.8131 -0.1668 35.1517 1.0170 -2.9922 -11.8166 0.6598 1.0192 -15.7058 -4.4451 
0.0000 93.1000 0.0000 -69.8143 -27.3750 -169.8796 -71.0021 0.0201 88.0081 96.3330 74.9853 -4.9283 -1.4953 27.9930 0.2721 -143.2249 11.9408 -163.8379 -155.1725 48.0380 -174.0001 0.5904 -11.0141 -22.9381 -142.7751 29.9993 -73.6634 14.9289 -6.9712 -112.1533 -0.0209 -1.0201 -0.7356 -1.0983 7.9822 23.0780 -50.0540 -31.7341 158.8764 2.7995 0.6880 107.1512 -0.0392 0.0964 0.1980 -40.7152 17.8814 93.8504 -2.8868 36.1864 -9.5514 -4.8334 -2.2205 -0.4893 2.0557 -8.5606 7.3785 -54.5368 -14.0250 78.2130 -0.0073 34.3254 2.9921 -3.5860 -12.7525 0.7939 0.6016 -14.0792 -4.8775 
0.0000 93.1000 0.0000 -69.1238 -28.2345 -169.1447 -71.0040 -0.3099 88.0088 95.0518 75.0069 -3.8866 -1.0667 28.1608 -0.3073 -142.3416 12.0814 -165.2203 -155.2952 47.8326 -173.8834 0.7999 -10.9029 -22.9210 -142.0621 30.4811 -74.6583 15.0560 -7.0874 -110.6711 0.2049 -1.3070 -0.6420 -1.0052 8.1244 23.3099 -50.0509 -31.9010 159.0743 2.7150 0.4468 107.6501 -0.0058 0.3852 0.4035 -40.7227 17.7836 94.3962 -3.4893 34.2806 -8.2680 -6.0791 -1.1414 -0.1610 1.3447 -6.7708 9.7323 -54.8312 -12.9001 77.0105 -0.1757 33.8632 3.0456 -3.2932 -13.5911 0.7769 1.1049 -12.2034 -6.6689 
0.0000 93.1000 0.0000 -68.6821 -29.2112 -169.1790 -71.0043 -0.2964 88.0081 94.3354 74.8475 -3.6947 -1.0932 27.8371 -0.0843 -142.2488 12.0270 -165.2915 -155.2328 47.9526 -173.8589 0.4900 -11.1213 -23.3924 -141.3171 30.5242 -74.5589 15.8095 -7.2491 -110.1777 0.2999 -1.2687 -0.8152 -1.0552 7.8821 22.9046 -49.9272 -31.9237 158.9000 2.9794 0.9574 108.0391 -0.1065 0.2725 0.2077 -41.1576 17.6142 96.1226 -2.9717 33.7158 -8.8864 -5.2943 -1.2911 -0.0855 0.8658 -6.0337 10.7057 -54.8751 -12.5721 77.0686 -0.1280 33.8230 2.8094 -4.1849 -14.0160 0.9027 0.9635 -11.3777 -7.7936 
0.0000 93.1000 0.0000 -69.8355 -30.0355 -170.1831 -71.0033 -0.5058 88.0100 94.7978 74.3740 -3.9958 -0.9799 27.3028 0.0008 -142.3596 11.7785 -165.2769 -155.5270 47.8363 -174.0977 0.3497 -11.1420 -23.8759 -141.4069 30.4124 -73.6549 16.1171 -6.8223 -109.9716 -0.0399 -1.4371 -0.8431 -1.0735 7.6776 22.9805 -50.0911 -31.5870 158.5830 2.9359 0.9718 107.8965 0.1338 0.3964 0.3530 -41.1838 17.2324 98.5152 -2.5324 35.3339 -9.3950 -4.7840 -1.9833 -0.0708 0.8124 -5.7117 9.9346 -54.6246 -11.8921 77.9508 -0.1130 33.9836 1.6378 -5.3669 -15.0871 0.8438 1.1823 -10.7696 -9.2052 
0.0000 93.1000 0.0000 -69.9891 -29.9561 -170.1176 -71.0004 -0.2952 88.0106 93.2839 74.0865 -3.4443 -0.3512 27.1845 0.0717 -142.1195 11.1561 -166.3135 -154.2683 47.1565 -175.2408 0.2606 -11.3474 -23.9322 -141.8214 30.3136 -72.5172 16.2276 -7.3514 -109.1421 -0.2015 -1.2970 -0.9039 -1.0710 7.8217 23.0549 -49.9615 -31.8843 158.1595 3.4236 0.9690 107.9462 0.1041 0.2649 0.2224 -41.4829 17.2458 99.8072 -3.2789 36.7590 -8.2411 -5.0176 -2.4036 -0.1638 1.0668 -6.3806 9.2739 -54.0804 -11.3098 78.4714 0.8353 34.9771 0.8177 -6.0425 -15.0728 0.9903 1.1618 -11.5739 -7.4644 
0.0000 93.1000 0.0000 -70.2129 -30.0443 -170.1322 -70.9977 -0.1524 88.0107 93.8450 73.8396 -3.8448 -0.4180 27.0459 -0.2192 -141.4005 10.9112 -166.2970 -154.0418 46.8269 -175.0748 -0.0649 -11.3446 -24.4841 -142.0651 29.9301 -71.5647 16.2012 -7.1177 -109.3432 -0.2451 -1.1817 -1.0025 -1.2105 7.7924 24.0445 -49.8316 -31.9020 158.0508 3.2694 0.9946 107.8528 0.0615 0.1340 0.0259 -42.2205 17.3402 100.9260 -3.5296 35.7217 -7.1065 -4.8245 -1.0975 0.0157 1.3298 -7.5783 9.1218 -53.9652 -11.0302 78.7465 0.9343 35.4824 -0.2225 -6.4780 -15.4222 0.9521 1.2015 -11.5267 -7.9270 
